<?xml version="1.0" standalone="no"?>
<!DOCTYPE svg PUBLIC "-//W3C//DTD SVG 20010904//EN"
 "http://www.w3.org/TR/2001/REC-SVG-20010904/DTD/svg10.dtd">
<svg version="1.0" xmlns="http://www.w3.org/2000/svg"
 width="400.000000pt" height="400.000000pt" viewBox="0 0 400.000000 400.000000"
 preserveAspectRatio="xMidYMid meet">

<g transform="translate(0.000000,400.000000) scale(0.100000,-0.100000)"
fill="#000000" stroke="none">
<path d="M1815 3873 c-16 -2 -79 -13 -140 -25 -547 -104 -1000 -506 -1173
-1039 -42 -127 -72 -292 -72 -395 -1 -59 -1 -59 -70 -134 l-69 -75 -91 90 -90
90 0 -68 c0 -53 -3 -67 -15 -67 -20 0 -20 -60 0 -199 63 -440 256 -818 577
-1126 132 -127 262 -222 401 -295 92 -49 100 -56 147 -125 28 -41 50 -76 50
-79 0 -3 -40 -34 -89 -69 l-89 -63 30 -12 c23 -8 28 -15 24 -30 -6 -17 5 -23
91 -50 280 -88 399 -106 713 -106 291 -1 384 10 640 75 216 55 220 56 220 83
0 17 8 26 30 32 29 9 29 9 -64 73 l-94 64 51 77 c46 70 59 82 117 110 262 129
529 370 708 638 180 269 294 596 318 910 6 81 5 92 -10 92 -13 0 -16 11 -16
66 l0 67 -92 -89 -91 -88 -63 69 -63 69 -6 76 c-14 185 -58 367 -125 522 -220
506 -696 860 -1250 928 -80 9 -279 11 -345 3z m391 -38 c208 -31 443 -123 624
-243 324 -216 553 -558 642 -959 30 -134 32 -454 5 -583 -32 -150 -67 -252
-132 -385 -204 -421 -571 -712 -1035 -822 -144 -34 -408 -43 -558 -19 -354 56
-646 211 -892 473 -195 208 -336 494 -386 778 -23 132 -23 374 0 508 82 487
413 919 861 1127 129 60 318 115 460 133 80 11 317 6 411 -8z m-1773 -1633
c15 -249 109 -519 258 -741 102 -153 294 -340 455 -443 141 -91 339 -169 524
-209 140 -31 455 -34 594 -6 521 105 949 450 1150 927 67 157 98 289 121 511
l6 56 63 -65 64 -66 71 64 c39 35 73 61 76 58 9 -8 -16 -243 -36 -343 -127
-633 -626 -1201 -1211 -1379 -248 -75 -440 -101 -683 -93 -340 12 -625 104
-914 295 -490 324 -787 848 -825 1455 -2 37 -1 67 2 67 3 0 37 -28 75 -62 l70
-62 61 66 c34 37 64 67 67 67 3 1 9 -43 12 -97z m928 -1661 c389 -131 772
-133 1191 -7 l107 33 -15 -29 -14 -28 51 20 51 20 -23 -37 c-12 -21 -31 -50
-41 -65 -18 -26 -18 -26 11 -50 15 -14 49 -38 75 -54 25 -16 46 -32 46 -35 0
-14 -272 -87 -455 -121 -104 -19 -154 -22 -380 -23 -271 0 -312 4 -513 51
-114 26 -292 83 -292 93 0 3 32 28 70 55 39 27 70 53 70 58 0 5 -16 33 -35 62
-19 29 -35 56 -35 59 0 4 12 2 26 -3 35 -14 36 -13 24 10 -6 11 -9 20 -7 20 2
0 41 -13 88 -29z"/>
<path d="M1750 3744 c-421 -65 -822 -351 -1029 -735 -163 -302 -216 -644 -150
-974 91 -455 383 -834 794 -1029 188 -90 336 -125 553 -133 261 -9 454 29 668
131 410 197 691 548 795 996 30 127 37 400 14 545 -72 462 -370 866 -790 1070
-260 127 -566 173 -855 129z m515 -43 c496 -107 889 -460 1049 -941 51 -152
69 -269 69 -445 0 -180 -17 -291 -74 -460 -151 -452 -525 -800 -986 -916 -328
-83 -662 -48 -958 98 -406 202 -681 564 -771 1018 -27 134 -25 406 4 538 42
191 104 343 200 492 224 348 585 577 997 634 107 15 364 5 470 -18z"/>
<path d="M1996 3635 c-9 -9 -14 -20 -11 -25 6 -10 -118 -25 -140 -16 -21 7
-19 33 3 39 12 3 10 5 -7 6 -21 1 -23 -2 -18 -28 5 -23 2 -31 -11 -34 -16 -4
-16 -5 1 -6 24 -1 23 -41 -2 -41 -10 0 -21 9 -24 20 -8 29 -47 27 -46 -2 1
-17 2 -19 6 -5 6 22 19 22 27 1 4 -11 -1 -22 -13 -31 -25 -17 -16 -45 13 -41
13 2 22 12 24 26 5 30 26 28 40 -5 10 -25 11 -23 9 27 l-2 55 48 3 47 3 0 -35
c0 -29 -4 -36 -20 -36 -25 0 -26 25 -2 40 15 9 14 10 -8 8 -33 -4 -40 -42 -10
-58 12 -6 24 -9 27 -6 4 3 12 1 20 -5 11 -9 13 -2 13 40 0 44 3 51 19 51 17 0
21 -8 24 -52 l3 -53 2 53 2 52 55 0 c42 0 55 -3 55 -15 0 -10 -10 -15 -34 -15
-26 0 -36 -5 -41 -20 -7 -22 10 -51 29 -49 7 0 6 2 -1 6 -7 2 -13 16 -13 29 0
22 4 25 28 22 24 -3 27 -7 24 -35 -2 -18 1 -33 6 -33 10 0 21 107 13 116 -2 2
-31 4 -63 4 -45 0 -60 4 -65 16 -13 34 33 38 70 6 23 -20 32 -10 10 11 -29 25
-68 31 -87 12z m-216 -140 c0 -8 -4 -15 -10 -15 -5 0 -10 7 -10 15 0 8 5 15
10 15 6 0 10 -7 10 -15z"/>
<path d="M2323 3538 c24 -9 28 -14 22 -37 -8 -34 -18 -43 -38 -35 -23 8 -21
25 3 31 11 3 20 10 20 15 0 15 -32 5 -44 -14 -9 -15 -6 -23 16 -43 33 -31 34
-31 42 0 4 16 13 25 26 25 25 0 27 -37 3 -43 -15 -4 -15 -5 -2 -6 22 -1 41 22
34 41 -4 9 -16 20 -28 26 l-22 10 24 9 c23 9 21 11 -22 21 -55 14 -73 14 -34
0z"/>
<path d="M1395 3507 c-12 -10 -16 -21 -12 -38 5 -20 0 -28 -33 -47 -24 -13
-40 -18 -40 -11 0 17 -79 5 -98 -15 -14 -13 -14 -19 -2 -41 7 -14 18 -25 24
-25 6 0 21 -16 34 -36 13 -20 26 -34 29 -31 2 3 -7 23 -21 44 l-26 38 22 17
c29 23 52 19 56 -10 2 -16 -2 -22 -14 -22 -16 0 -16 -1 2 -15 23 -17 60 -19
70 -4 4 8 0 9 -15 4 -31 -9 -43 2 -30 27 9 18 8 24 -7 35 -17 13 -17 14 1 27
17 12 21 12 31 -3 9 -11 9 -20 2 -29 -8 -9 -7 -11 5 -6 10 3 20 -2 27 -16 6
-12 14 -19 17 -17 2 3 -8 24 -23 47 -23 34 -25 43 -13 51 25 16 36 10 54 -31
10 -22 20 -38 22 -36 3 2 -5 23 -17 45 l-20 41 44 22 c37 18 42 23 31 35 -17
17 -76 17 -100 0z m83 -5 c9 -6 0 -14 -28 -27 -32 -15 -43 -16 -53 -6 -25 25
47 54 81 33z m-180 -103 c-2 -5 -18 -19 -36 -30 -30 -20 -32 -20 -39 -4 -4 12
0 23 12 31 22 16 68 19 63 3z"/>
<path d="M1557 3500 c4 -14 0 -20 -10 -20 -9 0 -18 -9 -22 -19 -4 -13 -12 -18
-22 -14 -8 3 -19 0 -23 -8 -12 -18 7 -49 28 -49 10 0 23 -5 29 -11 9 -9 19 -7
40 7 15 10 35 17 43 15 12 -2 11 1 -3 16 -9 11 -17 25 -17 31 0 16 -10 15 -32
-4 -16 -16 -18 -15 -24 1 -6 15 4 29 29 38 10 3 -2 37 -13 37 -5 0 -6 -9 -3
-20z m-53 -72 c-6 -10 -4 -10 8 0 12 10 18 10 23 2 4 -7 18 -10 32 -7 27 5 27
-11 -1 -27 -14 -8 -20 -8 -23 2 -3 6 -16 12 -29 12 -15 0 -24 6 -24 15 0 8 5
15 11 15 5 0 7 -6 3 -12z"/>
<path d="M2440 3500 c8 -5 20 -10 25 -10 6 0 3 5 -5 10 -8 5 -19 10 -25 10 -5
0 -3 -5 5 -10z"/>
<path d="M2557 3503 c-4 -3 -7 -15 -7 -25 0 -17 -2 -18 -30 -3 -37 19 -37 19
-43 -4 -2 -11 -15 -21 -28 -23 -16 -2 -24 -10 -24 -23 0 -25 32 -32 48 -11 19
25 40 5 28 -27 -6 -15 -7 -27 -2 -27 5 0 17 20 27 45 9 25 19 45 23 45 15 0
116 -67 113 -76 -3 -10 -18 -10 -44 1 -13 5 -15 2 -11 -14 4 -17 1 -21 -17
-21 -20 0 -22 4 -17 35 3 21 2 33 -4 30 -5 -4 -9 -21 -9 -40 0 -44 34 -59 59
-26 23 30 34 15 16 -20 -25 -48 -16 -46 15 4 17 26 35 47 40 47 23 0 21 -32
-4 -64 -28 -37 -31 -46 -17 -46 4 0 20 18 35 40 16 24 32 38 39 35 29 -15 -52
44 -112 81 -46 28 -67 48 -69 64 -3 19 0 22 17 17 12 -3 19 -1 15 4 -6 11 -28
12 -37 2z m-33 -42 c4 -5 3 -16 0 -25 -5 -12 -10 -13 -26 -5 -15 8 -17 13 -7
25 13 16 25 18 33 5z m-64 -36 c0 -8 -4 -15 -9 -15 -13 0 -22 16 -14 24 11 11
23 6 23 -9z"/>
<path d="M1957 3325 c-15 -31 -27 -69 -27 -85 0 -31 41 -133 57 -143 13 -8 66
103 66 138 0 27 -51 145 -63 145 -3 0 -18 -25 -33 -55z"/>
<path d="M1572 3236 c-20 -105 -16 -132 21 -172 l33 -36 136 1 c135 2 137 1
163 -25 15 -15 24 -33 21 -41 -3 -8 -6 -17 -6 -19 0 -2 -16 -4 -35 -4 -24 0
-35 -5 -35 -15 0 -10 10 -15 29 -15 52 0 49 33 50 -565 l2 -460 -76 -3 c-62
-2 -75 0 -75 13 0 8 -6 15 -14 15 -7 0 -26 18 -41 40 -42 60 -71 76 -113 60
-19 -7 -48 -13 -66 -15 -17 -2 -52 -6 -78 -9 -33 -4 -48 -3 -48 5 0 8 -4 8
-15 -1 -12 -10 -16 -9 -21 4 -4 9 -14 16 -23 14 -9 -1 -22 2 -30 7 -10 5 -16
4 -19 -3 -6 -19 -26 -13 -45 13 -13 19 -15 29 -8 43 10 15 11 15 17 -5 8 -29
13 -29 41 5 l22 27 1 -27 c0 -28 15 -38 23 -15 3 9 8 9 21 -2 15 -13 19 -13
26 -1 7 11 13 9 29 -11 l21 -24 6 23 c7 26 31 24 26 -2 -2 -9 2 -16 8 -16 5 0
10 5 10 10 0 6 8 10 18 8 10 -2 17 3 17 12 0 8 -9 16 -20 18 -11 2 -28 14 -37
25 -10 12 -18 16 -18 10 0 -22 -19 -14 -33 14 -14 27 -15 27 -22 4 -7 -23 -40
-26 -40 -4 0 22 -14 24 -25 4 -14 -27 -30 -27 -30 -1 0 11 -5 20 -11 20 -6 0
-13 -9 -16 -20 -6 -23 -33 -27 -33 -5 0 20 -16 19 -24 -1 -10 -26 -7 -86 4
-79 6 3 10 -2 10 -12 -1 -37 -40 -104 -105 -178 -72 -83 -85 -108 -85 -164 0
-46 -31 -79 -82 -87 -49 -8 -75 9 -88 57 -13 46 -8 73 28 179 48 139 30 224
-47 218 -25 -2 -37 -8 -39 -20 -2 -11 3 -18 12 -18 9 0 25 -9 36 -20 24 -24
23 -30 -27 -179 -39 -116 -40 -167 -3 -225 39 -64 130 -82 191 -37 26 19 35
22 48 12 9 -6 38 -23 64 -39 27 -15 57 -34 68 -42 21 -18 37 -70 20 -70 -6 0
-13 11 -17 24 -3 14 -14 32 -25 42 -23 21 -24 13 -3 -28 13 -25 15 -50 11
-115 -4 -75 -3 -83 13 -83 10 0 34 -7 55 -16 28 -11 41 -12 49 -4 8 8 6 14 -6
21 -23 13 -24 101 -3 152 22 53 19 68 -25 127 -30 40 -40 63 -40 91 0 43 23
66 133 138 39 25 81 63 102 92 22 32 42 49 56 49 31 0 59 18 53 35 -8 19 43
32 59 16 9 -10 6 -11 -14 -6 -16 4 -30 2 -33 -4 -5 -7 6 -12 31 -13 21 0 45
-1 53 -2 8 -1 15 -8 15 -16 0 -8 13 -18 30 -21 21 -5 9 -7 -37 -8 l-68 -1 0
-30 0 -30 150 0 150 0 0 -138 c0 -147 8 -178 46 -170 17 3 19 15 24 153 l5
150 153 3 152 3 0 29 c0 26 -4 30 -26 30 -22 0 -25 4 -22 32 2 24 11 37 35 51
l32 19 58 -36 c63 -39 94 -48 53 -16 -24 19 -24 20 -4 20 12 0 41 -19 65 -43
43 -42 74 -56 198 -87 24 -6 55 -23 68 -36 24 -24 25 -30 19 -93 -6 -56 -3
-77 14 -120 21 -53 27 -131 11 -131 -5 0 -11 6 -14 13 -7 17 -12 -3 -26 -92
-12 -81 -8 -95 30 -89 21 3 25 10 31 61 4 31 19 85 34 120 19 43 27 81 28 123
1 56 4 64 39 103 21 23 40 55 44 72 3 16 13 34 22 38 17 9 55 -1 66 -18 3 -6
11 -11 17 -11 6 0 6 6 -2 15 -18 22 -5 30 25 17 24 -11 25 -10 15 8 -9 16 -8
20 6 20 10 0 26 -7 36 -17 32 -29 19 -5 -14 27 l-33 30 30 24 c23 19 26 24 11
23 -31 -3 -30 21 2 37 33 17 58 44 49 53 -4 3 -13 0 -22 -7 -24 -20 -31 -3
-12 29 22 37 22 47 0 30 -15 -13 -16 -11 -10 13 4 14 10 33 13 42 4 9 0 18 -9
22 -9 3 -14 13 -11 22 3 9 -4 5 -16 -10 -30 -39 -42 -35 -39 12 2 21 0 42 -4
46 -4 4 -7 0 -7 -9 0 -10 -7 -17 -16 -17 -16 0 -16 11 1 53 4 10 3 17 -4 17
-6 0 -11 -8 -11 -19 0 -10 -7 -24 -15 -31 -16 -14 -19 -7 -15 39 1 14 -2 21
-9 17 -22 -14 -12 -105 19 -178 17 -38 30 -85 30 -102 0 -32 -41 -99 -67 -110
-7 -3 -32 7 -55 23 -24 16 -74 42 -112 57 -79 33 -123 79 -133 137 -4 30 -3
37 11 37 9 0 16 -4 16 -10 0 -5 5 -10 11 -10 8 0 8 4 -1 15 -6 8 -9 19 -6 24
4 5 -1 14 -10 19 -9 5 -15 15 -12 22 2 8 14 4 35 -14 47 -40 52 -31 8 14 -40
41 -38 53 3 24 13 -9 25 -14 28 -12 2 3 -19 17 -47 32 -28 16 -48 30 -46 33 3
2 32 -7 66 -21 33 -13 61 -21 61 -17 0 4 -26 18 -57 31 -64 25 -80 36 -70 47
4 4 21 -1 36 -10 40 -23 55 -22 41 3 -8 14 -21 20 -46 20 -32 0 -35 2 -29 23
12 37 22 42 58 22 19 -10 40 -15 48 -13 10 4 9 7 -6 13 -11 3 -39 15 -63 26
-34 15 -47 17 -64 8 -13 -7 -24 -7 -30 -1 -16 16 9 49 47 62 19 6 35 16 35 21
0 15 -16 11 -74 -18 -31 -15 -58 -24 -62 -21 -11 11 5 26 36 33 50 11 35 28
-17 21 -27 -4 -64 -7 -83 -9 -34 -2 -35 -3 -32 -38 3 -32 -2 -40 -40 -71 -24
-19 -58 -43 -75 -52 -24 -12 -33 -23 -33 -41 0 -14 4 -25 10 -25 5 0 7 7 4 15
-4 8 -1 15 5 15 6 0 11 -8 11 -19 0 -29 28 -48 48 -33 24 17 53 30 85 37 17 3
31 15 37 30 10 26 30 34 30 12 0 -7 -5 -18 -11 -24 -8 -8 -7 -16 2 -31 11 -17
8 -27 -21 -73 -19 -30 -52 -75 -74 -102 -43 -51 -55 -53 -107 -15 -32 24 -68
20 -83 -7 -6 -11 -26 -37 -43 -58 -24 -26 -33 -47 -33 -72 l0 -35 -101 0 -100
0 3 498 c3 536 3 532 54 532 15 0 24 6 24 15 0 10 -11 15 -35 15 -29 0 -35 3
-35 22 0 12 12 33 27 45 24 22 35 23 164 23 l137 0 31 35 c35 40 39 71 19 169
-7 34 -13 62 -14 64 -1 2 -13 -4 -27 -13 -36 -23 -50 -64 -39 -111 6 -22 13
-51 16 -66 l6 -28 -355 0 -355 0 0 23 c0 12 5 39 11 61 6 21 8 49 4 63 -5 23
-50 73 -65 73 -3 0 -12 -29 -18 -64z m1008 -800 c0 -3 -4 -8 -10 -11 -5 -3
-10 -1 -10 4 0 6 5 11 10 11 6 0 10 -2 10 -4z m-22 -88 c-7 -20 -48 -23 -48
-4 0 11 9 16 26 16 16 0 24 -5 22 -12z m78 -52 c19 -19 18 -26 -4 -26 -24 0
-32 8 -25 26 7 18 11 18 29 0z m-201 -46 c3 -5 -1 -10 -10 -10 -9 0 -13 5 -10
10 3 6 8 10 10 10 2 0 7 -4 10 -10z m205 -27 c0 -17 -25 -73 -32 -73 -18 0
-20 31 -4 55 15 23 36 34 36 18z m10 -113 c0 -5 -12 -12 -27 -16 -16 -3 -39
-10 -52 -15 -33 -14 -41 -1 -12 22 24 20 91 26 91 9z m530 1 c0 -6 -4 -13 -10
-16 -5 -3 -10 1 -10 9 0 9 5 16 10 16 6 0 10 -4 10 -9z m-84 -38 c-10 -10 -19
5 -10 18 6 11 8 11 12 0 2 -7 1 -15 -2 -18z m34 -37 c0 -8 -4 -18 -10 -21 -5
-3 -10 3 -10 14 0 12 5 21 10 21 6 0 10 -6 10 -14z m-760 -36 c0 -5 -11 -10
-25 -10 -34 0 -75 -45 -75 -81 0 -19 -5 -29 -15 -29 -16 0 -21 46 -7 65 32 45
122 86 122 55z m-800 -80 c0 -5 -4 -10 -10 -10 -5 0 -10 5 -10 10 0 6 5 10 10
10 6 0 10 -4 10 -10z m-220 -20 c0 -5 -4 -10 -10 -10 -5 0 -10 5 -10 10 0 6 5
10 10 10 6 0 10 -4 10 -10z m1265 0 c3 -5 17 -10 31 -10 13 0 24 -5 24 -10 0
-7 -14 -8 -37 -4 -44 8 -53 12 -53 25 0 12 27 12 35 -1z m505 -5 c0 -14 -65
-75 -81 -75 -25 0 -24 17 1 25 11 4 28 17 36 31 14 20 44 34 44 19z m-280 -15
c0 -5 -9 -10 -21 -10 -11 0 -17 5 -14 10 3 6 13 10 21 10 8 0 14 -4 14 -10z
m116 -136 c-10 -25 -23 -15 -19 14 8 47 16 60 21 29 2 -16 1 -35 -2 -43z
m-124 -389 c-2 -19 -8 -38 -13 -41 -10 -6 -12 59 -2 69 14 15 19 6 15 -28z"/>
<path d="M1345 2407 c-27 -13 -57 -32 -65 -42 -14 -17 -13 -18 10 -13 14 3 46
14 71 23 30 12 53 15 65 10 15 -7 11 -10 -21 -15 -22 -3 -54 -14 -71 -23 -38
-20 -92 -79 -99 -110 -7 -28 19 -86 28 -62 9 22 37 19 37 -5 0 -11 4 -20 9
-20 5 0 11 9 14 20 7 26 27 26 34 0 l6 -21 14 21 c18 26 29 25 37 -2 6 -22 7
-22 17 -4 11 18 12 18 30 -5 23 -31 37 -17 18 19 -18 35 -41 53 -53 42 -6 -6
-15 -5 -23 1 -9 8 -17 8 -27 0 -15 -13 -32 1 -22 18 10 16 -58 20 -71 4 -6 -8
-18 -13 -25 -10 -8 2 8 26 46 63 38 38 61 54 63 46 3 -7 -5 -25 -18 -39 l-24
-25 24 7 c16 5 26 3 32 -6 6 -11 11 -11 21 -1 19 19 41 15 35 -7 -3 -13 0 -17
12 -15 10 3 27 -11 45 -36 35 -47 45 -46 20 2 -10 18 -20 47 -24 63 -6 27 -10
30 -41 27 l-34 -3 25 22 c14 12 24 28 22 35 -4 19 47 18 54 0 3 -8 1 -22 -4
-32 -7 -12 0 -35 24 -84 25 -53 39 -70 63 -78 19 -7 33 -7 36 -1 9 13 -3 29
-21 29 -9 0 -14 6 -11 13 2 6 16 11 31 9 23 -2 26 1 26 26 0 23 -9 35 -49 60
-27 18 -54 32 -60 32 -6 0 -16 11 -21 25 -10 27 -49 50 -100 59 -26 5 -49 0
-85 -17z m223 -99 c-3 -7 -11 -13 -18 -13 -7 0 -15 6 -17 13 -3 7 4 12 17 12
13 0 20 -5 18 -12z"/>
<path d="M2700 2410 c0 -11 68 -25 78 -16 3 4 0 11 -8 16 -20 13 -70 13 -70 0z"/>
<path d="M2750 2334 c0 -8 32 -33 43 -34 5 0 5 4 2 10 -8 13 -45 33 -45 24z"/>
<path d="M1570 2154 c0 -7 -11 -9 -25 -6 -18 3 -25 0 -25 -12 0 -9 8 -16 18
-16 10 0 23 -5 29 -11 11 -11 33 -5 33 10 0 12 -29 47 -30 35z"/>
<path d="M2757 1708 c-5 -57 -2 -84 14 -132 12 -34 25 -68 30 -76 15 -27 10
27 -7 68 -10 25 -15 62 -13 112 2 91 1 100 -10 100 -4 0 -11 -32 -14 -72z"/>
<path d="M1793 1509 c-26 -7 -42 -28 -97 -120 -36 -60 -66 -111 -66 -113 0 -2
37 -6 83 -8 89 -6 148 -25 215 -70 l43 -29 -3 142 -3 143 -40 27 c-47 32 -88
41 -132 28z"/>
<path d="M2070 1504 c-77 -33 -80 -41 -80 -196 l0 -139 34 26 c53 40 132 66
219 72 42 3 77 8 77 10 0 2 -27 53 -60 112 -55 98 -64 109 -99 120 -47 14 -48
14 -91 -5z"/>
<path d="M3438 1643 c-18 -39 -23 -61 -16 -68 7 -7 12 -7 14 0 15 38 21 39 84
11 45 -20 65 -25 73 -17 13 13 15 12 -58 43 -57 24 -63 32 -54 67 2 7 -1 15
-7 18 -6 2 -23 -22 -36 -54z"/>
<path d="M450 1655 c-7 -9 -12 -36 -12 -60 2 -49 -9 -63 -32 -39 -18 18 -20
36 -6 50 6 6 6 15 -1 24 -8 13 -11 12 -24 -4 -22 -29 -18 -64 10 -91 29 -30
49 -31 75 -5 16 16 19 28 14 55 -7 39 0 56 22 48 9 -3 15 -16 14 -32 -4 -49
-2 -55 15 -41 24 20 18 66 -11 89 -32 25 -47 26 -64 6z"/>
<path d="M495 1508 c-39 -22 -71 -41 -72 -42 -1 -1 2 -8 7 -15 7 -12 12 -12
34 2 34 23 41 21 54 -8 17 -37 15 -41 -17 -55 -19 -7 -28 -17 -24 -26 4 -11
15 -8 54 12 90 45 108 59 99 74 -7 11 -13 10 -36 -5 -27 -17 -27 -17 -45 6
-24 32 -24 37 6 51 24 11 33 32 17 42 -4 2 -39 -13 -77 -36z"/>
<path d="M3378 1533 c-22 -26 -26 -45 -17 -70 12 -32 58 -31 89 2 26 28 45 32
53 11 7 -18 -13 -43 -37 -48 -25 -4 -31 -24 -10 -32 21 -8 55 14 73 48 20 36
-1 76 -39 76 -15 0 -36 -11 -50 -25 -27 -28 -66 -35 -56 -9 3 9 6 18 6 20 0 3
11 9 25 14 14 5 25 14 25 20 0 17 -46 11 -62 -7z"/>
<path d="M3310 1420 c0 -6 23 -26 51 -46 37 -27 49 -42 47 -58 -5 -34 -44 -32
-94 4 -40 29 -64 32 -64 10 0 -5 27 -25 61 -46 67 -41 92 -39 124 10 25 37 16
56 -45 98 -55 38 -80 47 -80 28z"/>
<path d="M594 1371 c-65 -41 -79 -55 -69 -70 3 -6 21 -1 42 11 l36 22 -7 -45
c-12 -70 -12 -82 0 -86 6 -2 16 13 22 34 10 35 14 38 48 38 65 0 69 35 11 107
l-22 27 -61 -38z m78 -29 c13 -22 14 -32 6 -40 -17 -17 -26 -15 -44 13 -13 20
-14 28 -4 40 17 21 23 19 42 -13z"/>
<path d="M3183 1257 c-26 -25 -46 -47 -43 -50 125 -102 133 -108 141 -95 6 9
0 20 -17 34 -35 29 -23 44 35 44 31 0 53 5 61 15 11 13 6 15 -33 15 -42 0 -46
2 -49 26 -2 15 -13 33 -25 41 -21 14 -25 12 -70 -30z m64 -13 c3 -9 -2 -24
-13 -34 -16 -16 -22 -17 -37 -5 -18 13 -18 14 2 34 25 25 39 27 48 5z"/>
<path d="M691 1229 c-60 -50 -69 -63 -53 -73 10 -6 132 90 132 104 0 25 -24
15 -79 -31z"/>
<path d="M3076 1151 c-32 -33 -44 -51 -36 -56 7 -4 19 0 28 9 15 15 20 12 68
-35 41 -41 53 -47 62 -36 9 10 1 24 -38 62 -47 46 -49 50 -33 67 11 12 13 22
7 28 -6 6 -27 -7 -58 -39z"/>
<path d="M777 1132 c-49 -49 -56 -61 -44 -71 12 -9 19 -7 34 15 29 39 45 23
41 -40 -2 -40 0 -51 12 -51 10 0 16 12 18 36 3 31 6 36 23 32 20 -6 59 21 59
41 0 10 -73 96 -82 96 -2 0 -30 -26 -61 -58z m103 -34 c0 -23 -25 -23 -49 1
-17 17 -17 20 -3 35 14 14 17 14 34 -1 10 -9 18 -24 18 -35z"/>
<path d="M2953 1053 c-7 -3 -13 -19 -14 -36 0 -18 -4 -40 -8 -50 -6 -17 -8
-17 -25 2 -19 21 -46 28 -46 13 0 -7 70 -105 89 -125 4 -4 15 -5 24 -1 15 5
15 8 1 29 -9 13 -14 33 -12 44 l3 20 44 -20 c39 -17 46 -18 59 -5 13 12 7 16
-41 32 -55 17 -56 18 -59 59 -2 28 -7 40 -15 38z"/>
<path d="M913 1006 c-52 -31 -69 -46 -61 -54 7 -7 16 -7 28 0 26 16 73 -18 67
-49 -2 -12 2 -28 8 -33 10 -9 19 7 40 71 26 82 27 109 3 108 -7 0 -45 -19 -85
-43z m61 -30 c-7 -30 -12 -31 -37 -11 -18 13 -17 14 10 28 34 18 36 17 27 -17z"/>
<path d="M1040 922 c-44 -75 -46 -82 -27 -82 7 0 24 18 36 41 29 52 38 44 17
-17 -26 -76 -2 -86 59 -24 21 22 40 38 43 36 2 -2 -9 -22 -23 -45 -17 -24 -25
-47 -21 -57 8 -20 3 -25 56 60 41 65 42 70 25 82 -15 11 -23 9 -61 -23 -49
-39 -50 -38 -30 28 14 46 14 47 -10 57 -22 11 -26 7 -64 -56z"/>
<path d="M2771 931 c-20 -13 6 -184 26 -176 8 3 16 5 17 5 2 0 1 10 -1 23 -6
31 52 65 76 44 16 -14 41 -13 41 3 0 6 -135 110 -143 110 -1 0 -8 -4 -16 -9z
m69 -71 c0 -8 -31 -23 -35 -18 -1 2 -5 16 -9 31 -7 28 -7 28 19 11 14 -9 25
-20 25 -24z"/>
<path d="M2623 858 c-29 -11 -53 -23 -53 -27 0 -7 59 -142 65 -149 1 -1 9 0
18 4 15 5 15 9 1 36 -23 45 -6 55 50 28 52 -25 82 -18 45 11 -13 10 -30 19
-36 19 -10 0 -10 6 -1 24 25 57 -16 82 -89 54z m57 -36 c0 -15 -35 -42 -54
-42 -11 0 -15 35 -5 46 17 21 59 18 59 -4z"/>
<path d="M1271 793 c-24 -59 -28 -79 -19 -85 9 -5 21 10 41 50 15 31 25 46 23
32 -3 -14 -8 -42 -11 -62 -6 -31 -4 -39 10 -45 13 -4 24 2 37 20 10 14 27 36
38 49 19 22 19 20 -2 -30 -16 -39 -18 -56 -10 -64 9 -9 21 9 47 67 28 61 33
80 23 86 -16 11 -48 11 -48 2 -1 -5 -15 -24 -32 -43 l-30 -35 6 57 c5 50 4 59
-13 68 -11 5 -22 10 -24 10 -3 0 -19 -35 -36 -77z"/>
<path d="M2468 803 c-16 -4 -18 -17 -18 -94 0 -71 3 -89 14 -89 8 0 16 12 18
27 4 34 48 52 83 33 48 -26 41 -3 -18 61 -42 45 -68 65 -79 62z m45 -94 c-30
-12 -33 -10 -33 23 l0 31 25 -23 c24 -22 24 -25 8 -31z"/>
<path d="M1467 747 c-30 -95 -17 -126 54 -127 43 0 51 8 73 74 20 61 20 76 2
76 -10 0 -21 -22 -32 -59 -17 -63 -33 -78 -65 -61 -23 13 -23 14 0 89 18 57
18 61 2 61 -12 0 -22 -16 -34 -53z"/>
<path d="M2355 770 c-16 -5 -21 -19 -25 -66 l-5 -59 -28 53 c-24 46 -31 52
-50 46 -12 -3 -24 -8 -26 -10 -2 -2 5 -36 16 -76 13 -49 25 -74 36 -76 13 -3
14 2 7 30 -22 87 -20 93 10 36 42 -81 58 -77 63 15 1 26 5 47 8 47 3 0 11 -22
18 -50 8 -32 18 -50 28 -50 16 0 13 26 -16 116 -14 45 -19 51 -36 44z"/>
<path d="M1627 683 c-15 -74 -11 -103 11 -89 5 3 12 20 16 37 8 40 26 34 51
-19 12 -26 26 -42 37 -42 10 0 18 2 18 5 0 10 -25 61 -34 66 -5 4 1 10 13 14
29 9 44 40 31 64 -8 16 -81 41 -119 41 -5 0 -15 -35 -24 -77z m106 30 c4 -2 7
-11 7 -19 0 -10 -12 -14 -40 -14 -40 0 -45 5 -34 34 6 15 40 14 67 -1z"/>
<path d="M1790 720 c0 -5 14 -10 30 -10 26 0 30 -3 26 -22 -3 -13 -7 -47 -11
-75 -5 -43 -3 -53 9 -53 9 0 17 13 20 33 17 111 16 107 41 107 16 0 25 6 25
15 0 12 -14 15 -70 15 -40 0 -70 -4 -70 -10z"/>
<path d="M1950 645 c0 -69 3 -85 15 -85 12 0 15 16 15 85 0 69 -3 85 -15 85
-12 0 -15 -16 -15 -85z"/>
<path d="M2093 723 c-17 -6 -17 -59 -1 -69 7 -4 28 -10 48 -14 26 -4 35 -10
35 -25 0 -26 -44 -34 -57 -11 -12 22 -40 21 -36 -1 5 -26 50 -47 81 -39 15 3
34 17 43 30 22 35 5 63 -48 73 -23 5 -43 14 -46 21 -6 19 27 26 54 12 27 -15
39 -9 31 15 -6 15 -74 20 -104 8z"/>
<path d="M1615 408 c-7 -20 -25 -130 -25 -150 0 -10 6 -18 13 -18 9 0 18 24
26 68 7 37 15 77 18 90 4 16 1 22 -11 22 -9 0 -19 -6 -21 -12z"/>
<path d="M1706 348 c-4 -35 -10 -75 -13 -90 -4 -21 -2 -28 10 -28 12 0 18 14
23 50 4 28 9 50 13 50 3 0 18 -27 33 -60 36 -83 53 -79 67 15 14 97 14 105 -3
105 -9 0 -17 -19 -22 -57 l-9 -58 -32 68 c-41 86 -58 87 -67 5z"/>
<path d="M2241 325 c-11 -46 -21 -89 -21 -95 0 -21 30 -9 36 15 3 14 13 25 23
25 9 0 26 3 38 6 16 4 23 0 28 -15 4 -12 15 -21 27 -21 23 0 25 -6 -30 93 -59
104 -73 103 -101 -8z m57 -23 c-27 -5 -29 -1 -22 38 l7 33 18 -34 c17 -33 17
-34 -3 -37z"/>
<path d="M1917 383 c-4 -3 -7 -44 -7 -90 l0 -83 53 0 c68 0 97 26 97 87 0 62
-29 93 -89 93 -26 0 -51 -3 -54 -7z m101 -52 c6 -17 7 -43 3 -58 -6 -24 -13
-28 -46 -31 -38 -3 -38 -3 -31 29 3 17 6 44 6 60 0 25 4 29 29 29 23 0 31 -6
39 -29z"/>
<path d="M2115 323 c9 -96 13 -113 31 -113 13 0 15 7 10 31 -3 17 -6 58 -6 90
0 53 -2 59 -20 59 -19 0 -20 -4 -15 -67z"/>
</g>
</svg>
